<?xml version="1.0" standalone="no"?>
<!DOCTYPE svg PUBLIC "-//W3C//DTD SVG 20010904//EN"
 "http://www.w3.org/TR/2001/REC-SVG-20010904/DTD/svg10.dtd">
<svg version="1.0" xmlns="http://www.w3.org/2000/svg"
 width="128.000000pt" height="128.000000pt" viewBox="0 0 128.000000 128.000000"
 preserveAspectRatio="xMidYMid meet">

<g transform="translate(0.000000,128.000000) scale(0.100000,-0.100000)"
fill="#000000" stroke="none">
<path d="M462 1273 c-20 -8 -49 -73 -57 -128 -10 -63 -42 -119 -64 -109 -40
17 -97 31 -108 27 -25 -9 -14 -42 15 -49 15 -4 39 -13 54 -20 27 -14 27 -14
10 -44 -20 -36 -28 -36 -87 -8 -33 16 -48 19 -56 11 -19 -19 -2 -43 48 -65 27
-11 49 -22 51 -23 1 -1 -9 -28 -23 -60 -71 -160 -98 -332 -71 -449 22 -91 89
-216 151 -281 49 -51 52 -53 128 -64 104 -15 142 -14 157 4 16 19 44 19 60 0
15 -18 53 -19 157 -4 76 11 79 13 129 65 68 71 140 214 156 312 19 114 -15
279 -96 462 -5 12 6 21 44 37 52 22 71 46 51 66 -8 8 -23 5 -56 -11 -59 -28
-67 -28 -87 8 -17 30 -17 30 10 44 15 7 39 16 55 20 28 7 39 40 15 49 -12 4
-69 -10 -109 -27 -22 -10 -54 46 -64 109 -8 59 -38 120 -61 129 -19 7 -65 -31
-92 -76 -15 -26 -21 -28 -84 -28 -37 0 -68 4 -68 9 0 11 -80 101 -88 100 -4 0
-13 -3 -20 -6z m55 -222 c3 -11 13 -21 24 -24 40 -11 9 -67 -36 -67 -24 0 -55
33 -55 57 0 16 36 53 51 53 6 0 13 -9 16 -19z m270 -1 c3 -11 11 -20 19 -20
22 0 26 -20 10 -45 -29 -45 -96 -23 -96 30 0 22 32 55 53 55 5 0 11 -9 14 -20z
m-99 -83 c4 -22 -25 -57 -46 -57 -34 0 -66 53 -45 74 4 4 25 6 48 4 29 -2 41
-8 43 -21z m95 -146 c140 -68 228 -247 199 -403 -23 -124 -99 -230 -199 -279
-57 -28 -174 -37 -237 -19 -96 27 -192 122 -232 230 -23 61 -23 199 0 260 38
102 122 191 213 225 60 23 197 16 256 -14z"/>
<path d="M554 782 c-73 -26 -126 -72 -165 -144 -32 -59 -34 -69 -34 -158 0
-89 2 -99 34 -159 52 -95 155 -161 251 -161 96 0 199 66 251 161 32 60 34 70
34 159 0 84 -3 101 -27 146 -40 75 -73 110 -132 139 -71 35 -146 41 -212 17z
m137 -108 c22 -11 29 -21 27 -37 -2 -17 -9 -21 -28 -19 -32 4 -68 4 -100 0
-38 -5 -40 36 -3 56 36 20 67 20 104 0z m-191 -79 c30 -16 40 -48 19 -60 -5
-4 -24 -1 -40 5 -23 10 -36 10 -56 1 -19 -9 -29 -9 -39 0 -21 17 -17 27 19 49
39 24 59 25 97 5z m378 -5 c35 -22 39 -32 18 -49 -10 -9 -20 -9 -39 0 -20 9
-33 9 -56 -1 -34 -14 -51 -7 -51 20 0 21 43 49 75 50 11 0 35 -9 53 -20z"/>
</g>
</svg>
