<?xml version="1.0" standalone="no"?>
<!DOCTYPE svg PUBLIC "-//W3C//DTD SVG 20010904//EN"
 "http://www.w3.org/TR/2001/REC-SVG-20010904/DTD/svg10.dtd">
<svg version="1.0" xmlns="http://www.w3.org/2000/svg"
 width="500.000000pt" height="260.000000pt" viewBox="0 0 500.000000 260.000000"
 preserveAspectRatio="xMidYMid meet">

<g transform="translate(0.000000,260.000000) scale(0.100000,-0.100000)"
fill="#000000" stroke="none">
<path d="M0 2506 c0 -57 4 -97 11 -102 6 -3 43 -6 82 -7 59 0 75 -4 90 -20 9
-11 17 -23 17 -26 0 -6 19 -10 62 -12 10 0 18 -5 18 -10 0 -6 4 -7 10 -4 6 3
10 -1 10 -9 0 -21 28 -46 45 -40 8 4 15 1 15 -6 0 -7 8 -9 20 -5 14 5 20 2 20
-9 0 -9 -6 -17 -12 -17 -7 -1 -22 -3 -33 -4 -84 -11 -104 -9 -122 12 -15 17
-27 20 -68 17 -33 -2 -54 -10 -63 -21 -7 -10 -18 -19 -25 -19 -7 -1 -16 -2
-21 -3 -5 0 1 -12 14 -25 27 -30 21 -53 -17 -62 -15 -3 -34 -7 -41 -10 -9 -3
-12 -224 -12 -1064 l0 -1060 2500 0 2500 0 0 1300 0 1300 -2500 0 -2500 0 0
-94z m1938 46 c-1 -4 3 -17 10 -29 10 -18 9 -21 -6 -19 -9 2 -17 10 -17 19 0
8 -4 19 -8 23 -12 13 -8 24 8 18 8 -3 14 -9 13 -12z m-1140 -197 c35 2 53 -11
28 -21 -12 -5 -13 -10 -5 -25 9 -18 5 -24 -15 -20 -6 1 -20 -3 -32 -10 -30
-16 -76 16 -67 46 8 26 35 46 48 35 5 -4 25 -7 43 -5z m-282 -130 c-10 -8 -15
-18 -12 -24 4 -5 2 -12 -4 -16 -5 -3 -10 -15 -10 -26 0 -20 -15 -26 -25 -9 -4
6 -12 7 -18 3 -7 -3 -4 3 6 14 9 11 17 32 17 47 0 25 3 27 25 22 16 -4 25 -2
25 5 0 7 3 9 7 5 5 -4 0 -14 -11 -21z m2452 -853 c-7 -51 -7 -84 0 -114 13
-52 9 -58 -15 -22 -25 39 -25 149 1 187 10 15 20 26 22 24 2 -1 -2 -35 -8 -75z
m-1708 -352 c0 -5 -2 -10 -4 -10 -3 0 -8 5 -11 10 -3 6 -1 10 4 10 6 0 11 -4
11 -10z m3650 -100 c0 -5 -4 -10 -9 -10 -6 0 -13 5 -16 10 -3 6 1 10 9 10 9 0
16 -4 16 -10z m-600 -40 c0 -5 -4 -10 -10 -10 -5 0 -10 5 -10 10 0 6 5 10 10
10 6 0 10 -4 10 -10z m-3200 -100 c0 -5 -4 -10 -10 -10 -5 0 -10 5 -10 10 0 6
5 10 10 10 6 0 10 -4 10 -10z m3430 -180 c0 -5 -2 -10 -4 -10 -3 0 -8 5 -11
10 -3 6 -1 10 4 10 6 0 11 -4 11 -10z m-2880 -50 c0 -5 -4 -10 -10 -10 -5 0
-10 5 -10 10 0 6 5 10 10 10 6 0 10 -4 10 -10z m1360 -10 c0 -5 -7 -7 -15 -4
-8 4 -15 8 -15 10 0 2 7 4 15 4 8 0 15 -4 15 -10z"/>
</g>
</svg>
